<?xml version="1.0" encoding="UTF-8"?>
<svg width="872px" height="6px" viewBox="0 0 872 6" version="1.1" xmlns="http://www.w3.org/2000/svg" xmlns:xlink="http://www.w3.org/1999/xlink">
    <!-- Generator: Sketch 51.2 (57519) - http://www.bohemiancoding.com/sketch -->
    <title>Group</title>
    <desc>Created with Sketch.</desc>
    <defs></defs>
    <g id="Page-1" stroke="none" stroke-width="1" fill="none" fill-rule="evenodd" stroke-linecap="round" stroke-linejoin="round">
        <g id="Landing-page" transform="translate(-284.000000, -1073.000000)" stroke="#C7C7C7" stroke-width="2">
            <g id="Group" transform="translate(285.000000, 1074.000000)">
                <path d="M48.3178,1.97981 C47.3878,3.18381 45.9308,3.95981 44.2918,3.95981 C42.6518,3.95981 41.1948,3.18381 40.2648,1.97981 C39.3348,0.77581 37.8778,-0.00019 36.2388,-0.00019 C34.5988,-0.00019 33.1418,0.77581 32.2118,1.97981 C31.2818,3.18381 29.8248,3.95981 28.1858,3.95981 C26.5468,3.95981 25.0888,3.18381 24.1588,1.97981 C23.2288,0.77581 21.7718,-0.00019 20.1328,-0.00019 C18.4938,-0.00019 17.0358,0.77581 16.1058,1.97981 C15.1768,3.18381 13.7188,3.95981 12.0798,3.95981 C10.4408,3.95981 8.9828,3.18381 8.0528,1.97981 C7.1238,0.77581 5.6658,-0.00019 4.0268,-0.00019 C2.3878,-0.00019 0.9298,0.77581 -0.0002,1.97981" id="Stroke-1"></path>
                <path d="M96.6356,1.97981 C95.7056,3.18381 94.2486,3.95981 92.6096,3.95981 C90.9696,3.95981 89.5126,3.18381 88.5826,1.97981 C87.6526,0.77581 86.1956,-0.00019 84.5566,-0.00019 C82.9166,-0.00019 81.4596,0.77581 80.5296,1.97981 C79.5996,3.18381 78.1426,3.95981 76.5036,3.95981 C74.8646,3.95981 73.4066,3.18381 72.4766,1.97981 C71.5466,0.77581 70.0896,-0.00019 68.4506,-0.00019 C66.8116,-0.00019 65.3536,0.77581 64.4236,1.97981 C63.4946,3.18381 62.0366,3.95981 60.3976,3.95981 C58.7586,3.95981 57.3006,3.18381 56.3706,1.97981 C55.4416,0.77581 53.9836,-0.00019 52.3446,-0.00019 C50.7056,-0.00019 49.2476,0.77581 48.3176,1.97981" id="Stroke-3"></path>
                <path d="M144.9533,1.97981 C144.0233,3.18381 142.5663,3.95981 140.9273,3.95981 C139.2883,3.95981 137.8303,3.18381 136.9003,1.97981 C135.9703,0.77581 134.5133,-0.00019 132.8743,-0.00019 C131.2353,-0.00019 129.7773,0.77581 128.8473,1.97981 C127.9173,3.18381 126.4603,3.95981 124.8213,3.95981 C123.1823,3.95981 121.7243,3.18381 120.7943,1.97981 C119.8653,0.77581 118.4073,-0.00019 116.7683,-0.00019 C115.1293,-0.00019 113.6713,0.77581 112.7413,1.97981 C111.8123,3.18381 110.3543,3.95981 108.7153,3.95981 C107.0763,3.95981 105.6183,3.18381 104.6883,1.97981 C103.7593,0.77581 102.3013,-0.00019 100.6623,-0.00019 C99.0233,-0.00019 97.5653,0.77581 96.6353,1.97981" id="Stroke-5"></path>
                <path d="M193.2712,1.97981 C192.3412,3.18381 190.8832,3.95981 189.2452,3.95981 C187.6052,3.95981 186.1482,3.18381 185.2182,1.97981 C184.2882,0.77581 182.8302,-0.00019 181.1922,-0.00019 C179.5522,-0.00019 178.0952,0.77581 177.1652,1.97981 C176.2352,3.18381 174.7782,3.95981 173.1392,3.95981 C171.5002,3.95981 170.0422,3.18381 169.1122,1.97981 C168.1822,0.77581 166.7252,-0.00019 165.0862,-0.00019 C163.4472,-0.00019 161.9892,0.77581 161.0592,1.97981 C160.1292,3.18381 158.6722,3.95981 157.0332,3.95981 C155.3942,3.95981 153.9362,3.18381 153.0062,1.97981 C152.0772,0.77581 150.6192,-0.00019 148.9802,-0.00019 C147.3412,-0.00019 145.8832,0.77581 144.9532,1.97981" id="Stroke-7"></path>
                <path d="M241.5889,1.97981 C240.6589,3.18381 239.2019,3.95981 237.5629,3.95981 C235.9229,3.95981 234.4659,3.18381 233.5359,1.97981 C232.6059,0.77581 231.1489,-0.00019 229.5099,-0.00019 C227.8699,-0.00019 226.4129,0.77581 225.4829,1.97981 C224.5529,3.18381 223.0959,3.95981 221.4569,3.95981 C219.8179,3.95981 218.3599,3.18381 217.4299,1.97981 C216.4999,0.77581 215.0429,-0.00019 213.4039,-0.00019 C211.7649,-0.00019 210.3069,0.77581 209.3769,1.97981 C208.4479,3.18381 206.9899,3.95981 205.3509,3.95981 C203.7119,3.95981 202.2539,3.18381 201.3239,1.97981 C200.3949,0.77581 198.9369,-0.00019 197.2979,-0.00019 C195.6589,-0.00019 194.2009,0.77581 193.2709,1.97981" id="Stroke-9"></path>
                <path d="M289.9067,1.97981 C288.9767,3.18381 287.5197,3.95981 285.8807,3.95981 C284.2407,3.95981 282.7837,3.18381 281.8537,1.97981 C280.9237,0.77581 279.4667,-0.00019 277.8277,-0.00019 C276.1877,-0.00019 274.7307,0.77581 273.8007,1.97981 C272.8707,3.18381 271.4137,3.95981 269.7747,3.95981 C268.1357,3.95981 266.6777,3.18381 265.7477,1.97981 C264.8177,0.77581 263.3607,-0.00019 261.7217,-0.00019 C260.0827,-0.00019 258.6247,0.77581 257.6947,1.97981 C256.7657,3.18381 255.3077,3.95981 253.6687,3.95981 C252.0297,3.95981 250.5717,3.18381 249.6417,1.97981 C248.7127,0.77581 247.2547,-0.00019 245.6157,-0.00019 C243.9767,-0.00019 242.5187,0.77581 241.5887,1.97981" id="Stroke-11"></path>
                <path d="M338.2244,1.97981 C337.2944,3.18381 335.8374,3.95981 334.1984,3.95981 C332.5594,3.95981 331.1014,3.18381 330.1714,1.97981 C329.2414,0.77581 327.7844,-0.00019 326.1454,-0.00019 C324.5064,-0.00019 323.0484,0.77581 322.1184,1.97981 C321.1884,3.18381 319.7314,3.95981 318.0924,3.95981 C316.4534,3.95981 314.9954,3.18381 314.0654,1.97981 C313.1354,0.77581 311.6784,-0.00019 310.0394,-0.00019 C308.4004,-0.00019 306.9424,0.77581 306.0124,1.97981 C305.0834,3.18381 303.6254,3.95981 301.9864,3.95981 C300.3474,3.95981 298.8894,3.18381 297.9594,1.97981 C297.0304,0.77581 295.5724,-0.00019 293.9334,-0.00019 C292.2944,-0.00019 290.8364,0.77581 289.9064,1.97981" id="Stroke-13"></path>
                <path d="M386.5422,1.97981 C385.6122,3.18381 384.1552,3.95981 382.5162,3.95981 C380.8772,3.95981 379.4192,3.18381 378.4892,1.97981 C377.5592,0.77581 376.1022,-0.00019 374.4632,-0.00019 C372.8242,-0.00019 371.3662,0.77581 370.4362,1.97981 C369.5062,3.18381 368.0492,3.95981 366.4102,3.95981 C364.7712,3.95981 363.3132,3.18381 362.3832,1.97981 C361.4532,0.77581 359.9962,-0.00019 358.3572,-0.00019 C356.7182,-0.00019 355.2602,0.77581 354.3302,1.97981 C353.4012,3.18381 351.9432,3.95981 350.3042,3.95981 C348.6652,3.95981 347.2072,3.18381 346.2772,1.97981 C345.3482,0.77581 343.8902,-0.00019 342.2512,-0.00019 C340.6122,-0.00019 339.1542,0.77581 338.2242,1.97981" id="Stroke-15"></path>
                <path d="M434.86,1.97981 C433.93,3.18381 432.472,3.95981 430.834,3.95981 C429.194,3.95981 427.737,3.18381 426.807,1.97981 C425.877,0.77581 424.419,-0.00019 422.781,-0.00019 C421.141,-0.00019 419.684,0.77581 418.754,1.97981 C417.824,3.18381 416.367,3.95981 414.728,3.95981 C413.089,3.95981 411.631,3.18381 410.701,1.97981 C409.771,0.77581 408.314,-0.00019 406.675,-0.00019 C405.036,-0.00019 403.578,0.77581 402.648,1.97981 C401.719,3.18381 400.261,3.95981 398.622,3.95981 C396.983,3.95981 395.525,3.18381 394.595,1.97981 C393.666,0.77581 392.208,-0.00019 390.569,-0.00019 C388.93,-0.00019 387.472,0.77581 386.542,1.97981" id="Stroke-17"></path>
                <path d="M483.1778,1.97981 C482.2478,3.18381 480.7908,3.95981 479.1518,3.95981 C477.5118,3.95981 476.0548,3.18381 475.1248,1.97981 C474.1948,0.77581 472.7378,-0.00019 471.0988,-0.00019 C469.4588,-0.00019 468.0018,0.77581 467.0718,1.97981 C466.1418,3.18381 464.6848,3.95981 463.0458,3.95981 C461.4068,3.95981 459.9488,3.18381 459.0188,1.97981 C458.0888,0.77581 456.6318,-0.00019 454.9928,-0.00019 C453.3538,-0.00019 451.8958,0.77581 450.9658,1.97981 C450.0368,3.18381 448.5788,3.95981 446.9398,3.95981 C445.3008,3.95981 443.8428,3.18381 442.9128,1.97981 C441.9838,0.77581 440.5258,-0.00019 438.8868,-0.00019 C437.2478,-0.00019 435.7898,0.77581 434.8598,1.97981" id="Stroke-19"></path>
                <path d="M531.4957,1.97981 C530.5657,3.18381 529.1077,3.95981 527.4687,3.95981 C525.8297,3.95981 524.3717,3.18381 523.4427,1.97981 C522.5127,0.77581 521.0547,-0.00019 519.4157,-0.00019 C517.7767,-0.00019 516.3187,0.77581 515.3897,1.97981 C514.4597,3.18381 513.0027,3.95981 511.3627,3.95981 C509.7247,3.95981 508.2667,3.18381 507.3367,1.97981 C506.4067,0.77581 504.9497,-0.00019 503.3097,-0.00019 C501.6717,-0.00019 500.2137,0.77581 499.2837,1.97981 C498.3537,3.18381 496.8967,3.95981 495.2567,3.95981 C493.6187,3.95981 492.1607,3.18381 491.2307,1.97981 C490.3007,0.77581 488.8437,-0.00019 487.2037,-0.00019 C485.5657,-0.00019 484.1077,0.77581 483.1777,1.97981" id="Stroke-21"></path>
                <path d="M579.8133,1.97981 C578.8833,3.18381 577.4263,3.95981 575.7873,3.95981 C574.1473,3.95981 572.6903,3.18381 571.7603,1.97981 C570.8303,0.77581 569.3733,-0.00019 567.7343,-0.00019 C566.0943,-0.00019 564.6373,0.77581 563.7073,1.97981 C562.7783,3.18381 561.3203,3.95981 559.6813,3.95981 C558.0423,3.95981 556.5843,3.18381 555.6543,1.97981 C554.7253,0.77581 553.2673,-0.00019 551.6283,-0.00019 C549.9893,-0.00019 548.5313,0.77581 547.6013,1.97981 C546.6723,3.18381 545.2143,3.95981 543.5753,3.95981 C541.9363,3.95981 540.4783,3.18381 539.5483,1.97981 C538.6193,0.77581 537.1613,-0.00019 535.5223,-0.00019 C533.8833,-0.00019 532.4253,0.77581 531.4953,1.97981" id="Stroke-23"></path>
                <path d="M628.1312,1.97981 C627.2012,3.18381 625.7442,3.95981 624.1042,3.95981 C622.4652,3.95981 621.0082,3.18381 620.0782,1.97981 C619.1482,0.77581 617.6912,-0.00019 616.0512,-0.00019 C614.4122,-0.00019 612.9552,0.77581 612.0252,1.97981 C611.0952,3.18381 609.6382,3.95981 607.9992,3.95981 C606.3602,3.95981 604.9022,3.18381 603.9722,1.97981 C603.0422,0.77581 601.5852,-0.00019 599.9452,-0.00019 C598.3072,-0.00019 596.8492,0.77581 595.9192,1.97981 C594.9892,3.18381 593.5322,3.95981 591.8932,3.95981 C590.2542,3.95981 588.7962,3.18381 587.8662,1.97981 C586.9362,0.77581 585.4792,-0.00019 583.8402,-0.00019 C582.2012,-0.00019 580.7432,0.77581 579.8132,1.97981" id="Stroke-25"></path>
                <path d="M676.4488,1.97981 C675.5198,3.18381 674.0618,3.95981 672.4228,3.95981 C670.7838,3.95981 669.3258,3.18381 668.3958,1.97981 C667.4668,0.77581 666.0088,-0.00019 664.3698,-0.00019 C662.7308,-0.00019 661.2728,0.77581 660.3428,1.97981 C659.4138,3.18381 657.9558,3.95981 656.3168,3.95981 C654.6778,3.95981 653.2198,3.18381 652.2898,1.97981 C651.3608,0.77581 649.9028,-0.00019 648.2638,-0.00019 C646.6248,-0.00019 645.1668,0.77581 644.2368,1.97981 C643.3078,3.18381 641.8498,3.95981 640.2108,3.95981 C638.5718,3.95981 637.1138,3.18381 636.1838,1.97981 C635.2548,0.77581 633.7968,-0.00019 632.1578,-0.00019 C630.5188,-0.00019 629.0608,0.77581 628.1308,1.97981" id="Stroke-27"></path>
                <path d="M724.7667,1.97981 C723.8367,3.18381 722.3797,3.95981 720.7407,3.95981 C719.1007,3.95981 717.6437,3.18381 716.7137,1.97981 C715.7837,0.77581 714.3267,-0.00019 712.6877,-0.00019 C711.0477,-0.00019 709.5907,0.77581 708.6607,1.97981 C707.7307,3.18381 706.2737,3.95981 704.6347,3.95981 C702.9957,3.95981 701.5377,3.18381 700.6077,1.97981 C699.6777,0.77581 698.2207,-0.00019 696.5817,-0.00019 C694.9427,-0.00019 693.4847,0.77581 692.5547,1.97981 C691.6247,3.18381 690.1677,3.95981 688.5287,3.95981 C686.8897,3.95981 685.4317,3.18381 684.5017,1.97981 C683.5727,0.77581 682.1147,-0.00019 680.4757,-0.00019 C678.8367,-0.00019 677.3787,0.77581 676.4487,1.97981" id="Stroke-29"></path>
                <path d="M773.0845,1.97981 C772.1545,3.18381 770.6975,3.95981 769.0575,3.95981 C767.4185,3.95981 765.9605,3.18381 765.0315,1.97981 C764.1015,0.77581 762.6445,-0.00019 761.0045,-0.00019 C759.3655,-0.00019 757.9085,0.77581 756.9785,1.97981 C756.0485,3.18381 754.5915,3.95981 752.9515,3.95981 C751.3135,3.95981 749.8555,3.18381 748.9255,1.97981 C747.9955,0.77581 746.5385,-0.00019 744.8985,-0.00019 C743.2605,-0.00019 741.8025,0.77581 740.8725,1.97981 C739.9425,3.18381 738.4855,3.95981 736.8465,3.95981 C735.2075,3.95981 733.7495,3.18381 732.8195,1.97981 C731.8895,0.77581 730.4325,-0.00019 728.7925,-0.00019 C727.1545,-0.00019 725.6965,0.77581 724.7665,1.97981" id="Stroke-31"></path>
                <path d="M821.4022,1.97981 C820.4722,3.18381 819.0152,3.95981 817.3762,3.95981 C815.7362,3.95981 814.2792,3.18381 813.3492,1.97981 C812.4202,0.77581 810.9622,-0.00019 809.3232,-0.00019 C807.6832,-0.00019 806.2262,0.77581 805.2962,1.97981 C804.3672,3.18381 802.9092,3.95981 801.2702,3.95981 C799.6312,3.95981 798.1732,3.18381 797.2432,1.97981 C796.3142,0.77581 794.8562,-0.00019 793.2172,-0.00019 C791.5782,-0.00019 790.1202,0.77581 789.1902,1.97981 C788.2612,3.18381 786.8032,3.95981 785.1642,3.95981 C783.5252,3.95981 782.0672,3.18381 781.1372,1.97981 C780.2082,0.77581 778.7502,-0.00019 777.1112,-0.00019 C775.4722,-0.00019 774.0142,0.77581 773.0842,1.97981" id="Stroke-33"></path>
                <path d="M869.72,1.97981 C868.79,3.18381 867.333,3.95981 865.693,3.95981 C864.054,3.95981 862.597,3.18381 861.667,1.97981 C860.737,0.77581 859.28,-0.00019 857.64,-0.00019 C856.001,-0.00019 854.544,0.77581 853.614,1.97981 C852.684,3.18381 851.227,3.95981 849.588,3.95981 C847.949,3.95981 846.491,3.18381 845.561,1.97981 C844.631,0.77581 843.174,-0.00019 841.535,-0.00019 C839.896,-0.00019 838.438,0.77581 837.508,1.97981 C836.578,3.18381 835.121,3.95981 833.482,3.95981 C831.843,3.95981 830.385,3.18381 829.455,1.97981 C828.525,0.77581 827.068,-0.00019 825.429,-0.00019 C823.79,-0.00019 822.332,0.77581 821.402,1.97981" id="Stroke-35"></path>
            </g>
        </g>
    </g>
</svg>