<?xml version="1.0" encoding="UTF-8"?>
<svg width="52px" height="52px" viewBox="0 0 52 52" version="1.1" xmlns="http://www.w3.org/2000/svg" xmlns:xlink="http://www.w3.org/1999/xlink">
    <!-- Generator: Sketch 51.2 (57519) - http://www.bohemiancoding.com/sketch -->
    <title>menu info</title>
    <desc>Created with Sketch.</desc>
    <defs></defs>
    <g id="Page-1" stroke="none" stroke-width="1" fill="none" fill-rule="evenodd">
        <g id="Landing-page" transform="translate(-38.000000, -38.000000)">
            <g id="menu-/-info" transform="translate(38.000000, 38.000000)">
                <circle id="Oval-Copy-5" fill="#FFFFFF" cx="26" cy="26" r="26"></circle>
                <path d="M24.7684538,13.1667138 C25.3796002,13.1667138 25.8745497,13.6616982 25.8745497,14.2728878 C25.8745497,14.8840774 25.3796002,15.3790619 24.7684538,15.3790619 C24.1578018,15.3790619 23.6623578,14.8840774 23.6623578,14.2728878 C23.6623578,13.6616982 24.1578018,13.1667138 24.7684538,13.1667138 M26.5835982,12.0180136 C26.9509783,12.0180136 27.2481458,12.315202 27.2481458,12.6826081 C27.2481458,13.0495196 26.9509783,13.3467081 26.5835982,13.3467081 C26.2167126,13.3467081 25.9195451,13.0495196 25.9195451,12.6826081 C25.9195451,12.315202 26.2167126,12.0180136 26.5835982,12.0180136 M25.4997528,17 C27.433072,17 29,15.4329613 29,13.5 C29,11.5670387 27.433072,10 25.4997528,10 C23.566928,10 22,11.5670387 22,13.5 C22,15.4329613 23.566928,17 25.4997528,17" id="Fill-1" fill="#000000"></path>
                <path d="M24.9216705,36.1816429 C24.9216705,36.32742 24.7975275,36.4459258 24.6448161,36.4459258 C24.4915853,36.4459258 24.3679618,36.32742 24.3679618,36.1816429 L24.3679618,23.9041375 C24.3679618,23.7578646 24.4915853,23.6398546 24.6448161,23.6398546 C24.7975275,23.6398546 24.9216705,23.7578646 24.9216705,23.9041375 L24.9216705,36.1816429 Z M28.7503636,35.8132334 L28.7503636,23.6636549 C28.7524413,22.1835712 27.5130895,21 25.9833784,21 C24.6453355,21 23.5285685,21.9063963 23.2709329,23.1112886 L23.2148348,24.2061043 L23.2148348,36.4459258 C23.2745689,37.8635337 24.486391,39 25.9833784,39 C27.3281737,39 28.4470185,38.0846785 28.6984209,36.8718528 L28.7503636,35.8132334 Z" id="Fill-3" fill="#000000"></path>
            </g>
        </g>
    </g>
</svg>