<?xml version="1.0" encoding="UTF-8"?>
<svg width="58px" height="6px" viewBox="0 0 58 6" version="1.1" xmlns="http://www.w3.org/2000/svg" xmlns:xlink="http://www.w3.org/1999/xlink">
    <!-- Generator: Sketch 51.2 (57519) - http://www.bohemiancoding.com/sketch -->
    <title>Stroke 1</title>
    <desc>Created with Sketch.</desc>
    <defs></defs>
    <g id="Page-1" stroke="none" stroke-width="1" fill="none" fill-rule="evenodd" stroke-linecap="round" stroke-linejoin="round">
        <g id="Landing-page" transform="translate(-551.000000, -744.000000)" stroke="#C7C7C7" stroke-width="2">
            <path d="M608,747 C607.076121,748.216162 605.62871,749 604.000497,749 C602.37129,749 600.923879,748.216162 600,747 C599.076121,745.783838 597.62871,745 596.000497,745 C594.37129,745 592.923879,745.783838 592,747 C591.076121,748.216162 589.62871,749 588.000497,749 C586.372284,749 584.923879,748.216162 584,747 C583.076121,745.783838 581.62871,745 580.000497,745 C578.372284,745 576.923879,745.783838 576,747 C575.077114,748.216162 573.62871,749 572.000497,749 C570.372284,749 568.923879,748.216162 568,747 C567.077114,745.783838 565.62871,745 564.000497,745 C562.372284,745 560.923879,745.783838 560,747 C559.077114,748.216162 557.62871,749 556.000497,749 C554.372284,749 552.923879,748.216162 552,747" id="Stroke-1"></path>
        </g>
    </g>
</svg>