<?xml version="1.0" encoding="UTF-8"?>
<svg width="202px" height="11px" viewBox="0 0 202 11" version="1.1" xmlns="http://www.w3.org/2000/svg" xmlns:xlink="http://www.w3.org/1999/xlink">
    <!-- Generator: Sketch 51.2 (57519) - http://www.bohemiancoding.com/sketch -->
    <title>Divider black Copy 6</title>
    <desc>Created with Sketch.</desc>
    <defs></defs>
    <g id="Web" stroke="none" stroke-width="1" fill="none" fill-rule="evenodd" stroke-linecap="round" stroke-linejoin="round">
        <g id="Careers-Page-[mobile]" transform="translate(-87.000000, -244.000000)" stroke="#FFFFFF">
            <g id="Divider-/-XXX-[db]" transform="translate(38.000000, 244.935560)">
                <g id="Group-2" transform="translate(50.000000, 0.000000)">
                    <g id="Group-7" transform="translate(60.000000, 0.000000)">
                        <path d="M10,0 L0,10" id="Line_6127"></path>
                        <path d="M20,0 L10,10" id="Line_6127-2"></path>
                        <path d="M30,0 L20,10" id="Line_6127-3"></path>
                        <path d="M40,0 L30,10" id="Line_6127-4"></path>
                        <path d="M50,0 L40,10" id="Line_6127-5"></path>
                        <path d="M60,0 L50,10" id="Line_6127-6"></path>
                        <path d="M70,0 L60,10" id="Line_6127-7"></path>
                        <path d="M80,0 L70,10" id="Line_6127-8"></path>
                        <path d="M90,0 L80,10" id="Line_6127-9"></path>
                        <path d="M100,0 L90,10" id="Line_6127-10"></path>
                        <path d="M110,0 L100,10" id="Line_6127-11"></path>
                        <path d="M120,0 L110,10" id="Line_6127-12"></path>
                        <path d="M130,0 L120,10" id="Line_6127-13"></path>
                        <path d="M140,0 L130,10" id="Line_6127-14"></path>
                    </g>
                    <g id="Group-7" transform="translate(70.000000, 5.000000) scale(-1, 1) translate(-70.000000, -5.000000) ">
                        <path d="M10,0 L0,10" id="Line_6127"></path>
                        <path d="M20,0 L10,10" id="Line_6127-2"></path>
                        <path d="M30,0 L20,10" id="Line_6127-3"></path>
                        <path d="M40,0 L30,10" id="Line_6127-4"></path>
                        <path d="M50,0 L40,10" id="Line_6127-5"></path>
                        <path d="M60,0 L50,10" id="Line_6127-6"></path>
                        <path d="M70,0 L60,10" id="Line_6127-7"></path>
                        <path d="M80,0 L70,10" id="Line_6127-8"></path>
                        <path d="M90,0 L80,10" id="Line_6127-9"></path>
                        <path d="M100,0 L90,10" id="Line_6127-10"></path>
                        <path d="M110,0 L100,10" id="Line_6127-11"></path>
                        <path d="M120,0 L110,10" id="Line_6127-12"></path>
                        <path d="M130,0 L120,10" id="Line_6127-13"></path>
                        <path d="M140,0 L130,10" id="Line_6127-14"></path>
                    </g>
                </g>
            </g>
        </g>
    </g>
</svg>