<?xml version="1.0" encoding="UTF-8"?>
<svg width="21px" height="20px" viewBox="0 0 21 20" version="1.1" xmlns="http://www.w3.org/2000/svg" xmlns:xlink="http://www.w3.org/1999/xlink">
    <!-- Generator: Sketch 51.2 (57519) - http://www.bohemiancoding.com/sketch -->
    <title>Github</title>
    <desc>Created with Sketch.</desc>
    <defs></defs>
    <g id="Web" stroke="none" stroke-width="1" fill="none" fill-rule="evenodd">
        <g id="Landing-Page" transform="translate(-972.000000, -2367.000000)" fill="#1B1E2A" fill-rule="nonzero">
            <g id="Group" transform="translate(878.500000, 2367.000000)">
                <path d="M112.941863,5.05850662 C112.047636,3.52635264 110.834673,2.3133442 109.302656,1.41920766 C107.77041,0.525025524 106.097655,0.0780484678 104.283205,0.0780484678 C102.468982,0.0780484678 100.79568,0.52516234 99.2637543,1.41920766 C97.7316003,2.31329859 96.5186831,3.52635264 95.6244553,5.05850662 C94.7303644,6.59061499 94.2832961,8.2636892 94.2832961,10.0776836 C94.2832961,12.2567025 94.9190333,14.216132 96.1908269,15.956474 C97.4624837,17.6969528 99.105276,18.9012962 101.119067,19.5696411 C101.353478,19.6131485 101.527006,19.5825474 101.639833,19.4786131 C101.752706,19.3745419 101.809074,19.2442021 101.809074,19.0881409 C101.809074,19.0621003 101.80684,18.8278261 101.802507,18.3850448 C101.798038,17.9422634 101.79594,17.5559869 101.79594,17.2263978 L101.496451,17.2782053 C101.305501,17.3131846 101.064614,17.3280063 100.77379,17.3238106 C100.483102,17.3197517 100.181332,17.2892874 99.8688903,17.2326457 C99.556312,17.1765056 99.2655785,17.0463027 98.9964619,16.8423104 C98.7274821,16.6383181 98.536533,16.3712993 98.42366,16.0416646 L98.293457,15.7420381 C98.2066702,15.5425607 98.0700369,15.3209648 97.8833746,15.0780713 C97.6967123,14.8349497 97.5079522,14.6701323 97.317003,14.5833455 L97.2258381,14.5180844 C97.1650919,14.4747138 97.1087238,14.4224046 97.056597,14.361704 C97.0045158,14.3010034 96.9655233,14.2402572 96.9394827,14.1794198 C96.9133965,14.1185368 96.9350134,14.0685991 97.0045614,14.0294242 C97.0741094,13.9902492 97.1997975,13.9712319 97.3821729,13.9712319 L97.6424876,14.0101331 C97.8161068,14.0449299 98.030862,14.1488643 98.2870266,14.3225747 C98.5430545,14.4961483 98.7535227,14.7218031 98.9184769,14.9994478 C99.1182279,15.3554424 99.3588868,15.6267024 99.6411377,15.8133647 C99.9231606,16.000027 100.207509,16.0931985 100.49391,16.0931985 C100.780311,16.0931985 101.027674,16.0714904 101.23609,16.0283023 C101.444278,15.9848861 101.639605,15.919625 101.821981,15.8328838 C101.900103,15.251052 102.112805,14.8040749 102.459907,14.4916334 C101.965181,14.4396434 101.520393,14.3613392 101.125315,14.2572224 C100.730465,14.1529688 100.322435,13.9837733 99.9014981,13.7491799 C99.4803336,13.5149057 99.1309518,13.2239898 98.8532614,12.8769339 C98.5755255,12.5296955 98.3475904,12.0738254 98.1697755,11.5097341 C97.9918695,10.9454147 97.9028936,10.2944454 97.9028936,9.55664364 C97.9028936,8.50612671 98.2458451,7.6121726 98.9316112,6.87427965 C98.6103679,6.08448793 98.6406954,5.1991076 99.0226849,4.21822989 C99.2744259,4.14001688 99.6477505,4.19871084 100.142476,4.39394691 C100.637293,4.5892742 100.999581,4.75659986 101.229705,4.89533103 C101.459829,5.0340166 101.644212,5.15154133 101.783125,5.2468563 C102.590566,5.02124713 103.42382,4.90841974 104.283114,4.90841974 C105.142408,4.90841974 105.975844,5.02124713 106.78333,5.2468563 L107.278102,4.93450594 C107.616447,4.72608995 108.015995,4.53509516 108.475787,4.36147598 C108.935853,4.187948 109.287651,4.1401537 109.530819,4.2183667 C109.921291,5.19929003 109.956088,6.08462474 109.634753,6.87441647 C110.320474,7.61230941 110.663562,8.50649155 110.663562,9.55678046 C110.663562,10.2945822 110.574267,10.9476038 110.396634,11.5162556 C110.218774,12.0849987 109.988878,12.5404127 109.706855,12.8834554 C109.424513,13.2264525 109.072896,13.5150881 108.65196,13.7493167 C108.230932,13.9837277 107.822765,14.1529232 107.427915,14.2571768 C107.032882,14.3614304 106.588094,14.4397802 106.093369,14.4918614 C106.544587,14.8823335 106.770242,15.4986885 106.770242,16.3406526 L106.770242,19.0877761 C106.770242,19.2438372 106.824512,19.3741314 106.933144,19.4782482 C107.041638,19.5821826 107.212977,19.6127837 107.447388,19.5692307 C109.461453,18.900977 111.104245,17.6965879 112.375857,15.9561092 C113.647331,14.2157672 114.283296,12.2563376 114.283296,10.0773188 C114.28284,8.26355238 113.835544,6.59061499 112.941863,5.05850662 Z" id="Github"></path>
            </g>
        </g>
    </g>
</svg>