<?xml version="1.0" encoding="UTF-8"?>
<svg width="20px" height="18px" viewBox="0 0 20 18" version="1.1" xmlns="http://www.w3.org/2000/svg" xmlns:xlink="http://www.w3.org/1999/xlink">
    <!-- Generator: Sketch 51.2 (57519) - http://www.bohemiancoding.com/sketch -->
    <title>Telegram</title>
    <desc>Created with Sketch.</desc>
    <defs></defs>
    <g id="Web" stroke="none" stroke-width="1" fill="none" fill-rule="evenodd">
        <g id="Landing-Page" transform="translate(-1021.000000, -2368.000000)" fill="#1B1E2A">
            <g id="Group" transform="translate(878.500000, 2367.000000)">
                <path d="M157.831702,17.9825472 C158.100029,18.1725429 158.445854,18.2200418 158.754181,18.1033778 C159.062507,17.9858805 159.289168,17.7225531 159.3575,17.4033937 C160.08165,14.0001379 161.838277,5.38616726 162.497429,2.29040439 C162.547428,2.05707637 162.464096,1.81458189 162.280767,1.6587521 C162.097438,1.50292231 161.843277,1.45792334 161.616615,1.54208809 C158.122528,2.83539198 147.36194,6.87280009 142.963707,8.50026305 C142.684546,8.60359403 142.502884,8.87192126 142.51205,9.16608123 C142.52205,9.46107451 142.720379,9.71690202 143.006206,9.8027334 C144.978661,10.39272 147.567769,11.2135346 147.567769,11.2135346 C147.567769,11.2135346 148.777741,14.8676181 149.40856,16.7259092 C149.487725,16.9592372 149.670221,17.1425663 149.911049,17.2058982 C150.151043,17.2683968 150.407704,17.202565 150.586866,17.0334022 C151.600177,16.0767573 153.166808,14.5976243 153.166808,14.5976243 C153.166808,14.5976243 156.143407,16.7800746 157.831702,17.9825472 Z M148.65691,10.7518785 L150.056045,15.3667734 L150.366872,12.4443399 C150.366872,12.4443399 155.772582,7.56861759 158.854178,4.78951417 C158.944176,4.70784937 158.956676,4.57118581 158.881678,4.47535466 C158.807513,4.37952351 158.670849,4.35702402 158.568352,4.42202254 C154.996766,6.70280396 148.65691,10.7518785 148.65691,10.7518785 Z" id="Telegram"></path>
            </g>
        </g>
    </g>
</svg>