<?xml version="1.0" encoding="UTF-8"?>
<svg width="21px" height="17px" viewBox="0 0 21 17" version="1.1" xmlns="http://www.w3.org/2000/svg" xmlns:xlink="http://www.w3.org/1999/xlink">
    <!-- Generator: Sketch 51.2 (57519) - http://www.bohemiancoding.com/sketch -->
    <title>Twitter</title>
    <desc>Created with Sketch.</desc>
    <defs></defs>
    <g id="Web" stroke="none" stroke-width="1" fill="none" fill-rule="evenodd">
        <g id="Landing-Page" transform="translate(-879.000000, -2368.000000)" fill="#1B1E2A" fill-rule="nonzero">
            <g id="Group" transform="translate(878.500000, 2367.000000)">
                <path d="M20.6835938,3.59179341 C19.904373,3.9814038 19.1251522,4.11127393 18.3459314,4.24114406 C19.1251522,3.72166354 19.7745028,2.94244276 20.1641132,2.03335185 C19.3848925,2.55283237 18.4758015,2.81257263 17.5667106,3.07231289 C16.0082691,1.3840012 13.4108665,1.3840012 11.7225548,2.94244276 C10.6835938,3.9814038 10.1641132,5.40997523 10.5537236,6.83854666 C7.30697037,6.70867653 4.19008726,5.15023497 2.11216518,2.55283237 C1.07320414,4.37101419 1.59268466,6.83854666 3.41086648,8.00737782 C2.76151583,8.00737782 2.11216518,7.74763756 1.59268466,7.48789731 C1.59268466,9.43594925 2.89138596,11.1242609 4.83943791,11.5138713 C4.44982752,11.6437415 4.19008726,11.6437415 3.80047687,11.6437415 C3.54073661,11.6437415 3.28099635,11.6437415 3.02125609,11.5138713 C3.54073661,13.202183 5.09917817,14.3710142 6.78748985,14.3710142 C5.35891843,15.5398454 3.54073661,16.0593259 1.72255479,16.0593259 L0.68359375,16.0593259 C2.50177557,17.228157 4.70956778,17.8775077 6.91735998,17.8775077 C13.2809963,17.8775077 18.4758015,12.8125726 18.6056717,6.44893627 L18.6056717,5.79958562 C19.3848925,5.15023497 20.0342431,4.50088432 20.6835938,3.59179341 Z" id="Twitter"></path>
            </g>
        </g>
    </g>
</svg>