<svg xmlns="http://www.w3.org/2000/svg" xmlns:xlink="http://www.w3.org/1999/xlink" viewBox="0 0 232.348 167.326"><defs><style>.cls-1{fill:url(#linear-gradient);}.cls-2{fill:#cf6652;}.cls-3{fill:url(#linear-gradient-2);}.cls-4{fill:url(#linear-gradient-3);}.cls-5{fill:url(#linear-gradient-4);}.cls-6{fill:#fff;}.cls-13,.cls-7,.cls-8{fill:none;}.cls-13,.cls-7{stroke-miterlimit:10;stroke-width:10px;}.cls-7{stroke:url(#radial-gradient);}.cls-9{fill:url(#linear-gradient-5);}.cls-10{fill:url(#linear-gradient-6);}.cls-11{fill:url(#linear-gradient-7);}.cls-12{fill:url(#linear-gradient-8);}.cls-13{stroke:url(#radial-gradient-2);}</style><linearGradient id="linear-gradient" x1="36.28" y1="21.158" x2="118.294" y2="151.811" gradientUnits="userSpaceOnUse"><stop offset="0.005" stop-color="#580e12"/><stop offset="1" stop-color="#150405"/></linearGradient><linearGradient id="linear-gradient-2" x1="6.91" y1="46.106" x2="14.207" y2="46.106" gradientTransform="matrix(1, 0, 0, -1, 0, 167.326)" gradientUnits="userSpaceOnUse"><stop offset="0" stop-color="#580e12"/><stop offset="1" stop-color="#150405"/></linearGradient><linearGradient id="linear-gradient-3" x1="20.481" y1="51.589" x2="23.538" y2="51.589" xlink:href="#linear-gradient-2"/><linearGradient id="linear-gradient-4" x1="19.442" y1="44.28" x2="28.315" y2="44.28" xlink:href="#linear-gradient-2"/><radialGradient id="radial-gradient" cx="83.473" cy="64.757" r="68.836" gradientUnits="userSpaceOnUse"><stop offset="0" stop-color="#fff"/><stop offset="1" stop-color="#fff" stop-opacity="0"/></radialGradient><linearGradient id="linear-gradient-5" x1="93.316" y1="4.297" x2="222.213" y2="165.198" gradientTransform="matrix(1, 0, 0, 1, 0, 0)" xlink:href="#linear-gradient-2"/><linearGradient id="linear-gradient-6" x1="-1245.327" y1="46.106" x2="-1238.029" y2="46.106" gradientTransform="matrix(-1, 0, 0, 1, -1019.889, 0)" xlink:href="#linear-gradient-2"/><linearGradient id="linear-gradient-7" x1="-1231.756" y1="51.589" x2="-1228.698" y2="51.589" gradientTransform="matrix(-1, 0, 0, 1, -1019.889, 0)" xlink:href="#linear-gradient-2"/><linearGradient id="linear-gradient-8" x1="-1232.795" y1="44.28" x2="-1223.922" y2="44.28" gradientTransform="matrix(-1, 0, 0, 1, -1019.889, 0)" xlink:href="#linear-gradient-2"/><radialGradient id="radial-gradient-2" cx="148.875" cy="64.757" r="68.836" xlink:href="#radial-gradient"/></defs><title>bitsausage logo basic</title><g id="Layer_2" data-name="Layer 2"><g id="Layer_1-2" data-name="Layer 1"><path class="cls-1" d="M143.979,35.68A83.7,83.7,0,0,0,6.91,35.669l.016.011h0a13.062,13.062,0,0,0,21.4,14.984c.035-.051.063-.105.1-.156a57.538,57.538,0,1,1-.1,66.154l-21.4,14.984A83.656,83.656,0,1,0,143.979,35.68Z"/><polygon points="12.375 51.951 12.411 67.508 0 61.378 12.375 51.951"/><circle class="cls-2" cx="17.625" cy="124.154" r="13.062"/><circle class="cls-3" cx="10.559" cy="121.22" r="3.648"/><circle class="cls-4" cx="22.01" cy="115.737" r="1.529"/><circle class="cls-5" cx="23.878" cy="123.046" r="4.436"/><circle class="cls-6" cx="15.567" cy="115.513" r="2.058"/><circle class="cls-6" cx="20.804" cy="130.734" r="1.206"/><circle class="cls-6" cx="13.388" cy="129.203" r="3.851"/><path d="M122.267,50.24c.538-.405,1.073-.814,1.629-1.2a57.29,57.29,0,0,1,22.644-9.463c-.815-1.312-1.664-2.613-2.561-3.894a83.6,83.6,0,0,0-16.762-17.743,83.817,83.817,0,0,0-18.3,9.7q-3.471,2.43-6.617,5.144A57.237,57.237,0,0,1,122.267,50.24Z"/><path d="M130.053,147.046a57.247,57.247,0,0,1-19.972-17.458c-.538.405-1.073.813-1.629,1.2a57.308,57.308,0,0,1-22.644,9.462c.815,1.313,1.663,2.613,2.561,3.894a83.576,83.576,0,0,0,16.762,17.743,83.813,83.813,0,0,0,18.305-9.7Q126.907,149.758,130.053,147.046Z"/><path class="cls-7" d="M13.943,38.459a75.942,75.942,0,0,1,124.415,87.117"/><line class="cls-8" x1="116.174" y1="124.304" x2="116.174" y2="8.156"/><line class="cls-8" x1="75.453" y1="83.663" x2="75.453" y2="65.127"/><line class="cls-8" x1="75.453" y1="26.128" x2="75.453" y2="0.002"/><line class="cls-8" x1="64.062" y1="13.065" x2="93.273" y2="13.065"/><path class="cls-8" d="M122.58,50.664c-.1-.145-.21-.281-.313-.424a57.523,57.523,0,0,0-12.5,78.924c.1.144.21.28.313.424A57.523,57.523,0,0,0,122.58,50.664Z"/><path class="cls-9" d="M88.368,131.646a83.7,83.7,0,0,0,137.07.011l-.016-.011h0a13.062,13.062,0,1,0-21.4-14.984c-.036.051-.063.1-.1.156a57.538,57.538,0,1,1,.1-66.154l21.4-14.984A83.656,83.656,0,1,0,88.368,131.646Z"/><polygon points="219.973 115.375 219.936 99.818 232.348 105.948 219.973 115.375"/><circle class="cls-2" cx="214.723" cy="43.172" r="13.062"/><circle class="cls-10" cx="221.789" cy="46.106" r="3.648"/><circle class="cls-11" cx="210.338" cy="51.589" r="1.529"/><circle class="cls-12" cx="208.47" cy="44.28" r="4.436"/><circle class="cls-6" cx="216.781" cy="51.813" r="2.058"/><circle class="cls-6" cx="211.544" cy="36.592" r="1.206"/><circle class="cls-6" cx="218.96" cy="38.122" r="3.851"/><path class="cls-13" d="M218.405,38.459A75.942,75.942,0,0,0,93.99,125.576"/></g></g></svg>