<?xml version="1.0" encoding="UTF-8"?>
<svg width="18px" height="20px" viewBox="0 0 18 20" version="1.1" xmlns="http://www.w3.org/2000/svg" xmlns:xlink="http://www.w3.org/1999/xlink">
    <!-- Generator: Sketch 51.2 (57519) - http://www.bohemiancoding.com/sketch -->
    <title>Discord</title>
    <desc>Created with Sketch.</desc>
    <defs></defs>
    <g id="Web" stroke="none" stroke-width="1" fill="none" fill-rule="evenodd">
        <g id="Landing-Page" transform="translate(-927.000000, -2367.000000)" fill="#1B1E2A" fill-rule="nonzero">
            <g id="Group" transform="translate(878.500000, 2367.000000)">
                <path d="M63.9463938,0.070254956 L50.9288231,0.070254956 C49.8287467,0.070254956 48.9120164,0.986985284 48.9120164,2.08706168 C48.9120164,2.08706168 48.9120164,2.08706168 48.9120164,2.08706168 L48.9120164,15.2879784 C48.9120164,16.3880548 49.8287467,17.3047851 50.9288231,17.3047851 C50.9288231,17.3047851 50.9288231,17.3047851 50.9288231,17.3047851 L62.0212601,17.3047851 L61.4712219,15.4713245 L62.7546443,16.6630739 L63.9463938,17.7631503 L66.0548735,19.596611 L66.0548735,2.08706168 C65.9632005,0.986985284 65.1381432,0.070254956 63.9463938,0.070254956 C63.9463938,0.070254956 63.9463938,0.070254956 63.9463938,0.070254956 Z M60.1877994,12.8128065 C60.1877994,12.8128065 59.8211073,12.3544414 59.5460882,11.9877492 C60.2794724,11.8044032 60.9211837,11.437711 61.2878758,10.7959998 C60.9211837,11.0710189 60.5544915,11.254365 60.1877994,11.346038 C59.7294342,11.5293841 59.2710691,11.7127301 58.8127039,11.8044032 C57.9876466,11.9877492 57.0709163,11.9877492 56.245859,11.8044032 C55.7874938,11.7127301 55.2374556,11.5293841 54.7790905,11.346038 C54.5040714,11.254365 54.3207253,11.1626919 54.0457062,10.9793459 C54.0457062,10.9793459 53.9540332,10.9793459 53.9540332,10.8876728 C53.9540332,10.8876728 53.9540332,10.8876728 53.9540332,10.8876728 C53.7706871,10.7959998 53.6790141,10.7043268 53.6790141,10.7043268 C54.1373792,11.254365 54.6874174,11.7127301 55.4208017,11.8960762 C55.1457826,12.2627683 54.7790905,12.7211335 54.7790905,12.7211335 C53.587341,12.7211335 52.4872647,12.1710953 51.7538804,11.254365 C51.7538804,9.23755824 52.3039186,7.31242455 53.1289759,5.57063693 C53.9540332,4.9289257 54.8707635,4.56223357 55.8791669,4.56223357 L55.9708399,4.6539066 C55.0541096,4.9289257 54.1373792,5.29561783 53.403995,5.93732906 C53.403995,5.93732906 53.587341,5.84565603 53.9540332,5.66230996 C54.6874174,5.38729086 55.4208017,5.11227176 56.154186,5.02059873 C56.245859,5.02059873 56.245859,5.02059873 56.337532,5.02059873 C56.9792433,4.9289257 57.6209545,4.9289257 58.3543388,5.02059873 C59.3627421,5.11227176 60.3711455,5.47896389 61.2878758,5.93732906 C60.5544915,5.38729086 59.7294342,4.9289257 58.8127039,4.6539066 L58.9043769,4.47056053 C59.9127803,4.56223357 60.8295106,4.83725266 61.6545679,5.47896389 C62.5712983,7.22075152 63.0296634,9.23755824 63.0296634,11.1626919 C62.4796252,12.2627683 61.3795488,12.8128065 60.1877994,12.8128065 Z M55.6958208,8.22915488 C55.0541096,8.13748185 54.5957444,8.59584701 54.5040714,9.23755824 C54.4123983,9.87926947 54.8707635,10.3376346 55.5124747,10.4293077 C56.154186,10.5209807 56.6125511,10.0626155 56.7042242,9.42090431 C56.7042242,9.42090431 56.7042242,9.32923127 56.7042242,9.32923127 C56.7042242,8.77919308 56.245859,8.22915488 55.6958208,8.22915488 C55.6958208,8.22915488 55.6958208,8.22915488 55.6958208,8.22915488 Z M59.2710691,8.22915488 C58.6293579,8.13748185 58.1709927,8.59584701 58.0793197,9.23755824 C57.9876466,9.87926947 58.4460118,10.3376346 59.087723,10.4293077 C59.7294342,10.5209807 60.1877994,10.0626155 60.2794724,9.42090431 C60.2794724,9.42090431 60.2794724,9.32923127 60.2794724,9.32923127 C60.2794724,8.77919308 59.8211073,8.22915488 59.2710691,8.22915488 C59.2710691,8.22915488 59.2710691,8.22915488 59.2710691,8.22915488 Z" id="Discord"></path>
            </g>
        </g>
    </g>
</svg>